<svg xmlns="http://www.w3.org/2000/svg" version="1.1" xmlns:xlink="http://www.w3.org/1999/xlink" width="512" height="512" x="0" y="0" viewBox="0 0 512 512" style="enable-background:new 0 0 512 512" xml:space="preserve" class=""><g><path fill-rule="evenodd" d="M255.182 7.758q69.23.79 125.086 34.03a249.734 249.734 0 0 1 88.89 89.434q33.037 56.191 33.825 125.843-1.962 95.3-60.117 162.79c-38.77 44.995-88.425 72.83-139.827 83.501V325.23h48.597l10.99-70h-73.587v-45.848a39.844 39.844 0 0 1 8.474-26.323q8.827-11.253 31.09-11.829h44.436v-61.318q-.957-.308-18.15-2.434a360.743 360.743 0 0 0-39.16-2.434q-44.433.205-70.281 25.068-25.85 24.855-26.409 71.92v53.198h-56v70h56v178.127c-63.115-10.67-112.77-38.506-151.54-83.5S8.691 320.598 7.383 257.065q.785-69.655 33.824-125.843a249.739 249.739 0 0 1 88.891-89.435q55.854-33.233 125.084-34.03z" fill="#ffffff" opacity="1" data-original="#000000" class=""></path></g></svg>