<svg xmlns="http://www.w3.org/2000/svg" version="1.1" xmlns:xlink="http://www.w3.org/1999/xlink" width="512" height="512" x="0" y="0" viewBox="0 0 501.213 501.213" style="enable-background:new 0 0 512 512" xml:space="preserve" class=""><g><path d="m475.242 370.564-6.416-29.306-35.375 7.745-40.056-25.666 47.514-10.403-6.417-29.306-76.819 16.819-32.065-20.546v-58.65l31.991-20.766 76.918 16.365 6.243-29.343-47.575-10.122 39.904-25.903 35.42 7.536 6.243-29.343-26.826-5.708 5.707-26.826-29.344-6.243-7.536 35.421-39.903 25.903 10.122-47.575-29.343-6.243-16.365 76.918-31.626 20.529-44.032-22.016V136.82l55.606-55.607L300 60l-34.394 34.394V46.82l25.606-25.607L270 0l-19.394 19.393L231.213 0 210 21.213l25.606 25.607v47.574L201.213 60 180 81.213l55.606 55.607v37.016l-44.084 22.042-31.796-20.373-16.82-76.82-29.306 6.416 10.403 47.514-40.056-25.666-7.746-35.375-29.304 6.416 5.866 26.792-26.792 5.866 6.416 29.306 35.375-7.745 40.056 25.666-47.514 10.403 6.417 29.306 76.819-16.819 32.065 20.546v58.65l-31.991 20.767-76.919-16.365-6.243 29.343 47.575 10.122-39.902 25.902-35.42-7.536-6.243 29.343 26.826 5.708-5.707 26.826 29.344 6.243 7.536-35.421 39.903-25.903-10.122 47.575 29.343 6.243 16.365-76.918 31.626-20.529 44.032 22.016v37.016L180 420l21.213 21.213 34.394-34.393v47.574L210 480l21.213 21.213 19.394-19.393L270 501.213 291.213 480l-25.606-25.607V406.82L300 441.213 321.213 420l-55.606-55.607v-37.016l44.084-22.042 31.796 20.374 16.82 76.82 29.306-6.417-10.403-47.513 40.056 25.666 7.746 35.375 29.306-6.417-5.866-26.792zm-179.636-91.728-45 22.5-45-22.5v-56.459l45-22.5 45 22.5z" fill="#213555" opacity="1" data-original="#000000" class=""></path></g></svg>